<?xml version="1.0" encoding="UTF-8" standalone="no"?>
<!-- Created with Inkscape (http://www.inkscape.org/) -->

<svg
   xmlns:dc="http://purl.org/dc/elements/1.1/"
   xmlns:cc="http://creativecommons.org/ns#"
   xmlns:rdf="http://www.w3.org/1999/02/22-rdf-syntax-ns#"
   xmlns:svg="http://www.w3.org/2000/svg"
   xmlns="http://www.w3.org/2000/svg"
   xmlns:sodipodi="http://sodipodi.sourceforge.net/DTD/sodipodi-0.dtd"
   xmlns:inkscape="http://www.inkscape.org/namespaces/inkscape"
   width="128"
   height="128"
   viewBox="0 0 33.866666 33.866668"
   version="1.1"
   id="svg8"
   inkscape:export-filename="/home/kirpal/projects/HumbleNewTabPage/icon_16.png"
   inkscape:export-xdpi="12"
   inkscape:export-ydpi="12"
   inkscape:version="0.92.2 2405546, 2018-03-11"
   sodipodi:docname="icon.svg">
  <defs
     id="defs2" />
  <sodipodi:namedview
     id="base"
     pagecolor="#ffffff"
     bordercolor="#666666"
     borderopacity="1.0"
     inkscape:pageopacity="0.0"
     inkscape:pageshadow="2"
     inkscape:zoom="2.8"
     inkscape:cx="79.755771"
     inkscape:cy="50.342019"
     inkscape:document-units="px"
     inkscape:current-layer="layer1"
     showgrid="false"
     units="px"
     inkscape:window-width="1920"
     inkscape:window-height="1024"
     inkscape:window-x="0"
     inkscape:window-y="28"
     inkscape:window-maximized="1" />
  <metadata
     id="metadata5">
    <rdf:RDF>
      <cc:Work
         rdf:about="">
        <dc:format>image/svg+xml</dc:format>
        <dc:type
           rdf:resource="http://purl.org/dc/dcmitype/StillImage" />
        <dc:title></dc:title>
      </cc:Work>
    </rdf:RDF>
  </metadata>
  <g
     inkscape:label="Layer 1"
     inkscape:groupmode="layer"
     id="layer1"
     transform="translate(0,-263.13333)">
    <rect
       id="rect18"
       width="33.866669"
       height="33.866669"
       x="-8.5058593e-07"
       y="263.13333"
       style="stroke-width:0.26458335"
       ry="16.933334" />
    <g
       aria-label="~"
       transform="matrix(0.91432686,0,0,0.91432686,-7.1158201,240.74354)"
       style="font-style:normal;font-variant:normal;font-weight:normal;font-stretch:normal;font-size:40px;line-height:1.25;font-family:lato;-inkscape-font-specification:lato;letter-spacing:0px;word-spacing:0px;fill:#ffffff;fill-opacity:1;stroke:none"
       id="flowRoot10">
      <path
         d="m 29.902578,42.567734 q 1.3,0 2.02,-0.84 0.74,-0.86 0.76,-2.26 h 2.88 q 0,1.34 -0.38,2.46 -0.36,1.12 -1.06,1.92 -0.68,0.8 -1.7,1.24 -1.02,0.44 -2.3,0.44 -1.04,0 -2.06,-0.32 -1.02,-0.32 -1.98,-0.7 -0.94,-0.4 -1.8,-0.72 -0.86,-0.34 -1.58,-0.34 -1.3,0 -2.04,0.84 -0.72,0.84 -0.74,2.26 h -2.88 q 0,-1.34 0.36,-2.46 0.38,-1.12 1.06,-1.92 0.7,-0.8 1.7,-1.24 1.02,-0.46 2.32,-0.46 1.04,0 2.06,0.34 1.02,0.32 1.96,0.72 0.96,0.38 1.82,0.72 0.86,0.32 1.58,0.32 z"
         style="fill:#ffffff;fill-opacity:1"
         id="path20"
         inkscape:connector-curvature="0" />
    </g>
  </g>
</svg>
